<svg width="255" height="255" viewBox="0 0 255 255" fill="none" xmlns="http://www.w3.org/2000/svg">
<g clip-path="url(#clip0)">
<path fill-rule="evenodd" clip-rule="evenodd" d="M156.652 228.74C147.394 231.401 137.613 232.826 127.5 232.826C117.387 232.826 107.607 231.401 98.3497 228.74L110.39 151.337H144.611L156.652 228.74ZM170.454 223.698C207.213 207.26 232.826 170.371 232.826 127.5C232.826 69.33 185.67 22.1739 127.5 22.1739C69.33 22.1739 22.1739 69.33 22.1739 127.5C22.1739 170.372 47.788 207.261 84.5475 223.699L96.5133 146.776C97.3954 141.105 102.278 136.924 108.016 136.924H112.221L120.962 90.3056C122.319 83.0706 132.682 83.0706 134.039 90.3056L142.779 136.924H146.985C152.723 136.924 157.606 141.105 158.488 146.776L170.454 223.698ZM127.301 255L127.5 255L127.699 255H127.816L127.815 255C198.087 254.83 255 197.811 255 127.5C255 57.0837 197.916 0 127.5 0C57.0837 0 0 57.0837 0 127.5C0 162.28 13.9263 193.808 36.5069 216.811L39.858 220.339C42.4541 223.072 42.7113 227.275 40.4676 230.304L28.7245 246.157C26.0145 249.815 28.6261 255 33.179 255H127.301Z" fill="#023047"/>
</g>
<defs>
<clipPath id="clip0">
<rect width="255" height="255" fill="white"/>
</clipPath>
</defs>
</svg>
